<?xml version="1.0" encoding="iso-8859-1"?>
<!-- Generator: Adobe Illustrator 16.0.0, SVG Export Plug-In . SVG Version: 6.00 Build 0)  -->
<!DOCTYPE svg PUBLIC "-//W3C//DTD SVG 1.1//EN" "http://www.w3.org/Graphics/SVG/1.1/DTD/svg11.dtd">
<svg version="1.1" id="Capa_1" xmlns="http://www.w3.org/2000/svg" xmlns:xlink="http://www.w3.org/1999/xlink" x="0px" y="0px"
	 width="621.814px" height="621.814px" viewBox="0 0 621.814 621.814" style="enable-background:new 0 0 621.814 621.814;"
	 xml:space="preserve">
<g>
	<g id="Shape_3_1_">
		<g>
			<path d="M309.24,0C158.287,0,27.499,112.391,5.034,261.435c-0.895,5.954,3.206,11.516,9.16,12.41
				c5.878,0.916,11.505-3.195,12.411-9.161C47.466,126.219,168.985,21.811,309.24,21.811c157.627,0,285.863,128.237,285.863,285.853
				c0,131.956-89.358,246.103-217.312,277.585c-5.845,1.441-9.411,7.352-7.982,13.197c1.222,4.973,5.682,8.299,10.578,8.299
				c0.861,0,1.745-0.1,2.617-0.316c137.714-33.883,233.899-156.744,233.899-298.765C616.913,138.019,478.896,0,309.24,0z
				 M200.186,233.452c-107.058,0-194.17,87.113-194.17,194.181c0,107.07,87.101,194.182,194.17,194.182
				s194.193-87.111,194.193-194.182C394.379,320.564,307.266,233.452,200.186,233.452z M200.186,599.992
				c-95.041,0-172.36-77.318-172.36-172.369c0-95.041,77.319-172.372,172.36-172.372c95.051,0,172.382,77.319,172.382,172.372
				C372.567,522.674,295.237,599.992,200.186,599.992z"/>
		</g>
	</g>
</g>
<g>
</g>
<g>
</g>
<g>
</g>
<g>
</g>
<g>
</g>
<g>
</g>
<g>
</g>
<g>
</g>
<g>
</g>
<g>
</g>
<g>
</g>
<g>
</g>
<g>
</g>
<g>
</g>
<g>
</g>
</svg>
