<svg height="511pt" viewBox="1 -41 511.99875 511" width="511pt" xmlns="http://www.w3.org/2000/svg"><path d="m478.1875 237.945312c22.070312-22.070312 22.070312-57.980468 0-80.050781l-140.867188-140.867187c-10.660156-10.660156-24.871093-16.527344-40.023437-16.527344s-29.367187 5.867188-40.023437 16.527344l-141.859376 141.855468 220.917969 220.917969zm0 0"/><path d="m497 399.265625h-183.625l-219.171875-219.167969-77.652344 77.652344c-22.066406 22.066406-22.066406 57.976562 0 80.046875l87.074219 87.074219c2.8125 2.816406 6.628906 4.394531 10.605469 4.394531h382.769531c8.28125 0 15-6.714844 15-15s-6.71875-15-15-15zm0 0"/></svg>