<svg xmlns="http://www.w3.org/2000/svg" height="511pt" version="1.1" viewBox="1 -39 511.99998 511" width="511pt">
<g id="surface1">
<path d="M 457.1875 80.90625 L 262.398438 80.90625 L 213.589844 20.769531 C 203.167969 8.085938 187.878906 0.5 171.460938 0.5 L 54.699219 0.5 C 24.6875 0.5 0 25.414062 0 55.425781 L 0 378.296875 C 0 408.195312 24.6875 433.113281 54.699219 433.113281 L 457.300781 433.113281 C 487.3125 433.113281 512 408.195312 512 378.183594 L 512 135.152344 C 511.886719 105.140625 487.199219 80.90625 457.1875 80.90625 Z M 22.648438 378.183594 L 22.648438 55.425781 C 22.648438 37.871094 37.144531 23.148438 54.699219 23.148438 L 171.460938 23.148438 C 180.972656 23.148438 190.03125 27.679688 196.035156 35.152344 L 233.066406 80.90625 L 112.570312 80.90625 C 82.671875 80.90625 57.757812 105.140625 57.757812 135.152344 L 57.757812 410.460938 L 54.699219 410.460938 C 37.144531 410.460938 22.648438 395.738281 22.648438 378.183594 Z M 489.238281 378.183594 C 489.238281 395.625 474.742188 410.460938 457.1875 410.460938 L 80.40625 410.460938 L 80.40625 135.152344 C 80.40625 117.710938 95.128906 103.554688 112.570312 103.554688 L 457.1875 103.554688 C 474.628906 103.554688 489.238281 117.710938 489.238281 135.152344 Z M 489.238281 378.183594 " style=" stroke:none;fill-rule:nonzero;fill:rgb(0%,0%,0%);fill-opacity:1;" />
<path d="M 353.5625 201.175781 L 374.0625 180.679688 C 378.480469 176.261719 378.480469 169.128906 374.0625 164.710938 C 369.644531 160.292969 362.511719 160.292969 358.09375 164.710938 L 333.519531 189.285156 C 317.664062 181.359375 299.996094 175.921875 281.199219 175.921875 C 212.566406 175.921875 159.226562 247.949219 156.964844 251.007812 C 154.019531 254.972656 154.019531 260.40625 156.964844 264.371094 C 158.320312 266.183594 178.253906 293.023438 208.71875 314.085938 L 188.21875 334.585938 C 183.804688 339 183.804688 346.136719 188.21875 350.554688 C 190.484375 352.816406 193.316406 353.835938 196.261719 353.835938 C 199.203125 353.835938 202.035156 352.703125 204.300781 350.554688 L 228.878906 325.976562 C 244.734375 333.90625 262.398438 339.339844 281.199219 339.339844 C 349.828125 339.339844 403.167969 267.3125 405.433594 264.257812 C 408.378906 260.292969 408.378906 254.855469 405.433594 250.894531 C 404.074219 249.082031 384.140625 222.242188 353.5625 201.175781 Z M 180.632812 257.574219 C 194.789062 240.8125 235.21875 198.460938 281.199219 198.460938 C 293.542969 198.460938 305.320312 201.515625 316.417969 206.273438 L 310.640625 212.050781 C 302.148438 206.5 291.957031 203.328125 281.085938 203.328125 C 251.1875 203.328125 226.722656 227.675781 226.722656 257.6875 C 226.722656 268.5625 230.007812 278.753906 235.445312 287.246094 L 224.914062 297.777344 C 204.527344 284.1875 188.445312 266.863281 180.632812 257.574219 Z M 312.792969 257.574219 C 312.792969 275.015625 298.636719 289.285156 281.085938 289.285156 C 276.441406 289.285156 272.136719 288.265625 268.175781 286.566406 L 309.964844 244.777344 C 311.773438 248.628906 312.792969 252.933594 312.792969 257.574219 Z M 249.488281 257.574219 C 249.488281 240.136719 263.644531 225.867188 281.199219 225.867188 C 285.839844 225.867188 290.144531 226.882812 294.109375 228.582031 L 252.320312 270.371094 C 250.507812 266.523438 249.488281 262.21875 249.488281 257.574219 Z M 281.199219 316.691406 C 268.851562 316.691406 257.074219 313.632812 245.976562 308.878906 L 251.753906 303.101562 C 260.246094 308.648438 270.4375 311.820312 281.3125 311.820312 C 311.207031 311.820312 335.671875 287.472656 335.671875 257.460938 C 335.671875 246.589844 332.386719 236.398438 326.949219 227.902344 L 337.484375 217.371094 C 358.09375 230.847656 374.0625 248.0625 381.988281 257.347656 C 367.492188 274.335938 327.175781 316.691406 281.199219 316.691406 Z M 281.199219 316.691406 " style=" stroke:none;fill-rule:nonzero;fill:rgb(0%,0%,0%);fill-opacity:1;" />
</g>
</svg>