<svg height="512pt" viewBox="0 -5 512.0007 512" width="512pt" xmlns="http://www.w3.org/2000/svg"><path d="m430.953125 245.503906-50.40625-50.410156-31.820313 31.820312c-17.546874 17.546876-46.09375 17.546876-63.640624 0-17.546876-17.546874-17.546876-46.09375 0-63.640624l31.820312-31.820313-50.40625-50.40625-137.890625 116.671875 185.675781 185.671875zm0 0"/><path d="m306.300781 184.488281c-5.851562 5.851563-5.851562 15.359375 0 21.210938 5.851563 5.855469 15.359375 5.855469 21.214844 0l137.882813-137.882813-21.214844-21.214844zm0 0"/><path d="m349.792969 10.566406-60.3125 51.035156 48.640625 48.640626 84.851562-84.851563-12.304687-12.308594c-16.417969-16.417969-43.171875-17.523437-60.875-2.515625zm0 0"/><path d="m72.957031 396.621094 42.425781 42.425781c17.546876 17.546875 46.089844 17.546875 63.636719 0l16.824219-17.046875h50.816406c17.382813 0 33.859375-5.933594 47.105469-16.703125l-187.0625-187.0625c-10.769531 13.246094-16.703125 29.722656-16.703125 47.109375v50.8125l-17.042969 16.824219c-17.546875 17.546875-17.546875 46.09375 0 63.640625zm0 0"/><path d="m501.433594 162.207031c15.011718-17.722656 13.902344-44.457031-2.515625-60.875l-12.304688-12.304687-84.855469 84.855468 48.640626 48.640626zm0 0"/><path d="m4.398438 465.789062c-7.882813 7.882813-4.710938 21.308594 5.867187 24.835938l31.820313 10.605469c5.390624 1.796875 11.328124.394531 15.347656-3.625l36.734375-37.347657-42.425781-42.425781zm0 0"/></svg>